<svg width="100" height="100" xmlns="http://www.w3.org/2000/svg" xmlns:xlink="http://www.w3.org/1999/xlink">
 <!-- Created with Method Draw - http://github.com/duopixel/Method-Draw/ -->

 <g>
  <title>background</title>
  <rect fill="#fff" id="canvas_background" height="102" width="102" y="-1" x="-1"/>
  <g display="none" overflow="visible" y="0" x="0" height="100%" width="100%" id="canvasGrid">
   <rect fill="url(#gridpattern)" stroke-width="0" y="0" x="0" height="100%" width="100%"/>
  </g>
 </g>
 <g>
  <title>Layer 1</title>
  <linearGradient id="svg_12">
   <stop stop-color="#52ce63" offset="0"/>
   <stop stop-color="#51a256" offset="1"/>
  </linearGradient>
  <linearGradient y2="42.862855%" y1="0%" xlink:href="#svg_12" x2="42.816933%" x1="55.342075%" id="svg_11"/>
  <linearGradient y2="42.862855%" y1="0%" xlink:href="#svg_12" x2="42.808103%" x1="55.348642%" id="svg_10"/>
  <linearGradient y2="58.811243%" y1="0%" x2="50%" x1="50%" id="svg_9">
   <stop stop-color="#8ae99c" offset="0"/>
   <stop stop-color="#52ce63" offset="1"/>
  </linearGradient>
  <linearGradient y2="100%" y1="17.472551%" x2="44.584719%" x1="51.37763%" id="svg_8">
   <stop stop-color="#ffe56c" offset="0"/>
   <stop stop-color="#ffc63a" offset="1"/>
  </linearGradient>
  <g id="svg_41">
   <g transform="matrix(0.1956717561008645,0,0,0.1956717561008645,0,0) " id="svg_14" fill-rule="evenodd" fill="none">
    <g id="svg_15" transform="matrix(0.99254615,0.12186934,-0.12186934,0.99254615,33.922073,0.976691) ">
     <path id="svg_16" fill="url(#svg_11)" d="m230.614709,220.727001c28.284809,-34.451954 13.875712,-70.997608 -20.751003,-113.174229s-95.023272,-51.278549 -104.643431,-39.560828c-9.620159,11.717707 -2.922762,86.227182 31.703953,128.403803c34.626722,42.176628 65.405666,58.783215 93.690482,24.331254z"/>
     <path id="svg_17" fill="url(#svg_10)" d="m258.829937,221.550433c28.284816,34.451961 58.288544,16.901132 92.915259,-25.275489c34.626715,-42.176621 42.099335,-115.741861 32.479168,-127.459575c-9.620159,-11.717707 -70.791925,-3.560028 -105.41864,38.616593s-48.26061,79.666518 -19.975788,114.118471z"/>
     <path id="svg_18" fill="url(#svg_9)" d="m243.349537,202.587096c39.94183,0 50.95265,-38.25199 50.95265,-97.89875c0,-59.64675 -37.36774,-118.10125 -50.95265,-118.10125s-52.04735,58.4545 -52.04735,118.10125c0,59.64676 12.10551,97.89875 52.04735,97.89875z"/>
    </g>
    <path id="svg_19" fill="url(#svg_8)" d="m240.784536,493.517611c83.11886,0 150.52653,-24.14515 150.52653,-133.64515s-67.40767,-199.35485 -150.52653,-199.35485c-83.11885,0 -150.47347,89.85485 -150.47347,199.35485s67.35462,133.64515 150.47347,133.64515z"/>
    <ellipse id="svg_20" ry="10" rx="21.5" fill="#eaadcc" cy="327.517611" cx="316.811066"/>
    <ellipse id="svg_21" transform="matrix(0.99254615,0.12186934,-0.12186934,0.99254615,40.859033,-10.039292) " ry="10" rx="21.5" fill="#eaadcc" cy="314.710791" cx="157.479459"/>
    <g id="svg_22" transform="matrix(-0.99939083,0.0348995,0.0348995,0.99939083,269.284825,271.027667) ">
     <path id="svg_23" stroke-width="6" stroke-linejoin="round" stroke-linecap="round" stroke="#000" d="m16.56518,52.402443c6.65047,5.029863 14.194776,6.912846 22.63292,5.648939c8.438154,-1.263916 14.594928,-4.999625 18.470345,-11.207145"/>
     <path id="svg_24" fill="#000" d="m97.963272,-2.512621c-5.93754,0 -11.31278,2.4063 -15.20364,6.29681c-3.89094,3.89058 -6.29748,9.26545 -6.29748,15.20263c0,5.93769 2.40649,11.31274 6.29729,15.20343c3.89089,3.89076 9.2662,6.29713 15.20383,6.29713c5.93711,0 11.3119,-2.40639 15.20239,-6.29723c3.8903,-3.89066 6.29649,-9.26567 6.29649,-15.20333c0,-5.93715 -2.40624,-11.31198 -6.29668,-15.20253c-3.89047,-3.89059 -9.26518,-6.29691 -15.2022,-6.29691z"/>
     <path id="svg_25" fill="#fff" d="m97.462152,15.487379c0,-3.86555 3.13536,-7 6.99941,-7c3.8664,0 7.00059,3.13445 7.00059,7s-3.13419,7 -7.00059,7c-3.86405,-0.00117 -6.99941,-3.13445 -6.99941,-7z"/>
     <path id="svg_26" fill="#000" d="m-32.037848,7.487379c-5.93753,0 -11.31243,2.40627 -15.20299,6.29672c-3.8907,3.89057 -6.29701,9.26547 -6.29701,15.20272c0,5.93775 2.40626,11.31284 6.29682,15.20351c3.89059,3.89071 9.26556,6.29705 15.20318,6.29705c5.93712,0 11.31225,-2.40642 15.20304,-6.29732c3.89054,-3.89067 6.29696,-9.26564 6.29696,-15.20324c0,-5.93709 -2.40647,-11.31188 -6.29715,-15.20245c-3.89076,-3.89064 -9.26582,-6.29699 -15.20285,-6.29699z"/>
     <g id="svg_27" fill="#fff">
      <path id="svg_28" stroke-width="3" stroke="#fff" fill-rule="nonzero" d="m79.462152,18.986819c0,10.21852 8.28291,18.50056 18.50112,18.50056c10.21709,0 18.49888,-8.28204 18.49888,-18.50056c0,-10.2174 -8.28179,-18.49944 -18.49888,-18.49944c-10.21821,0 -18.50112,8.28204 -18.50112,18.49944zm-6,0c0,-13.5312 10.96929,-24.49944 24.50112,-24.49944c13.53084,0 24.49888,10.96837 24.49888,24.49944c0,13.53196 -10.96781,24.50056 -24.49888,24.50056c-13.53206,0 -24.50112,-10.96847 -24.50112,-24.50056z"/>
      <path id="svg_29" stroke-width="3" stroke="#fff" fill-rule="nonzero" d="m-50.537848,28.986819c0,10.21852 8.28179,18.50056 18.5,18.50056c10.21709,0 18.5,-8.28204 18.5,-18.50056c0,-10.2174 -8.28291,-18.49944 -18.5,-18.49944c-10.21821,0 -18.5,8.28204 -18.5,18.49944zm-6,0c0,-13.5313 10.96827,-24.49944 24.5,-24.49944c13.53094,0 24.5,10.96847 24.5,24.49944c0,13.53186 -10.96883,24.50056 -24.5,24.50056c-13.53196,0 -24.5,-10.96837 -24.5,-24.50056z"/>
      <path id="svg_30" d="m-32.537848,25.487379c0,-3.86555 3.13445,-7 7,-7s7,3.13445 7,7s-3.13445,7 -7,7s-7,-3.13445 -7,-7z"/>
     </g>
    </g>
    <g id="svg_31" stroke-width="11" stroke-linecap="round">
     <g id="svg_32" stroke="#ecb732">
      <path id="svg_33" d="m126.811066,370.017611l74,77"/>
      <path id="svg_34" d="m190.811066,379.017611l-47,50"/>
     </g>
     <g id="svg_35" transform="matrix(-1,0,0,1,298,377) " stroke="#ecb732">
      <path id="svg_36" d="m-55.811066,-6.982389l74,77"/>
      <path id="svg_37" d="m8.188934,2.017611l-47,50"/>
     </g>
     <g id="svg_38" transform="matrix(0,1,-1,0,215,207) " stroke="#ffc73b">
      <path id="svg_39" d="m-6.982389,-55.811066l49,49"/>
      <path id="svg_40" d="m42.017611,-45.811066l-49,49"/>
     </g>
    </g>
   </g>
  </g>
 </g>
</svg>